<?xml version="1.0" encoding="iso-8859-1"?>
<!-- Generator: Adobe Illustrator 19.0.0, SVG Export Plug-In . SVG Version: 6.00 Build 0)  -->
<svg version="1.1" id="Capa_1" xmlns="http://www.w3.org/2000/svg" xmlns:xlink="http://www.w3.org/1999/xlink" x="0px" y="0px"
	 viewBox="0 0 512 512" style="enable-background:new 0 0 512 512;" xml:space="preserve">
<g>
	<g>
		<g>
			<path fill="#fff" d="M168,80h-8c-4.8,0-8,3.2-8,8s3.2,8,8,8h8c4.8,0,8-3.2,8-8S172.8,80,168,80z"/>
			<path fill="#fff" d="M192,96h8c4.8,0,8-3.2,8-8s-3.2-8-8-8h-8c-4.8,0-8,3.2-8,8S187.2,96,192,96z"/>
			<path fill="#fff" d="M128,96h8c4.8,0,8-3.2,8-8s-3.2-8-8-8h-8c-4.8,0-8,3.2-8,8S123.2,96,128,96z"/>
			<path fill="#fff" d="M320,352c4.8,0,8-3.2,8-8s-3.2-8-8-8h-8c-4.8,0-8,3.2-8,8s3.2,8,8,8H320z"/>
			<path fill="#fff" d="M352,352c4.8,0,8-3.2,8-8s-3.2-8-8-8h-8c-4.8,0-8,3.2-8,8s3.2,8,8,8H352z"/>
			<path fill="#fff" d="M288,352c4.8,0,8-3.2,8-8s-3.2-8-8-8h-8c-4.8,0-8,3.2-8,8s3.2,8,8,8H288z"/>
			<path fill="#fff" d="M445.6,82.4l-80-80C364,0.8,362.4,0,360,0H72c-4.8,0-8,4-8,8v496c0,4.8,3.2,8,8,8h368c4.8,0,8-3.2,8-8v-96
				c0-4.8-3.2-8-8-8s-8,4-8,8v88H80V16h272v72c0,4.8,3.2,8,8,8h72v256c0,4.8,3.2,8,8,8s8-4,8-8V88C448,85.6,447.2,84,445.6,82.4z
				 M368,80V28l52,52H368z"/>
			<path fill="#fff" d="M440,368c-4.8,0-8,3.2-8,8v8c0,4.8,3.2,8,8,8s8-3.2,8-8v-8C448,371.2,444.8,368,440,368z"/>
			<path fill="#fff" d="M240,56c0-4.8-3.2-8-8-8H128c-4.8,0-8,3.2-8,8s3.2,8,8,8h104C236.8,64,240,60.8,240,56z"/>
			<path fill="#fff" d="M384,304H216c-4.8,0-8,3.2-8,8s3.2,8,8,8h168c4.8,0,8-3.2,8-8S388.8,304,384,304z"/>
			<path fill="#fff" d="M216,352h40c4.8,0,8-3.2,8-8s-3.2-8-8-8h-40c-4.8,0-8,3.2-8,8S211.2,352,216,352z"/>
			<path fill="#fff" d="M384,376H216c-4.8,0-8,3.2-8,8s3.2,8,8,8h168c4.8,0,8-3.2,8-8S388.8,376,384,376z"/>
			<path fill="#fff" d="M384,408H216c-4.8,0-8,3.2-8,8s3.2,8,8,8h168c4.8,0,8-3.2,8-8S388.8,408,384,408z"/>
			<path fill="#fff" d="M320,192c4.8,0,8-3.2,8-8s-3.2-8-8-8h-8c-4.8,0-8,3.2-8,8s3.2,8,8,8H320z"/>
			<path fill="#fff" d="M352,192c4.8,0,8-3.2,8-8s-3.2-8-8-8h-8c-4.8,0-8,3.2-8,8s3.2,8,8,8H352z"/>
			<path fill="#fff" d="M288,192c4.8,0,8-3.2,8-8s-3.2-8-8-8h-8c-4.8,0-8,3.2-8,8s3.2,8,8,8H288z"/>
			<path fill="#fff" d="M384,144H216c-4.8,0-8,3.2-8,8s3.2,8,8,8h168c4.8,0,8-3.2,8-8S388.8,144,384,144z"/>
			<path fill="#fff" d="M216,192h40c4.8,0,8-3.2,8-8s-3.2-8-8-8h-40c-4.8,0-8,3.2-8,8S211.2,192,216,192z"/>
			<path fill="#fff" d="M384,224H216c-4.8,0-8,3.2-8,8s3.2,8,8,8h168c4.8,0,8-3.2,8-8S388.8,224,384,224z"/>
			<path fill="#fff" d="M384,256H216c-4.8,0-8,3.2-8,8s3.2,8,8,8h168c4.8,0,8-3.2,8-8S388.8,256,384,256z"/>
			<path fill="#fff" d="M176,144c0-4.8-3.2-8-8-8h-40c-4.8,0-8,3.2-8,8v40c0,4.8,3.2,8,8,8h40c4.8,0,8-3.2,8-8V144z M160,176h-24v-24h24V176z"/>
			<path fill="#fff" d="M176,224c0-4.8-3.2-8-8-8h-40c-4.8,0-8,3.2-8,8v40c0,4.8,3.2,8,8,8h40c4.8,0,8-3.2,8-8V224z M160,256h-24v-24h24V256z"/>
			<path fill="#fff" d="M176,304c0-4.8-3.2-8-8-8h-40c-4.8,0-8,3.2-8,8v40c0,4.8,3.2,8,8,8h40c4.8,0,8-3.2,8-8V304z M160,336h-24v-24h24V336z"/>
			<path fill="#fff" d="M168,376h-40c-4.8,0-8,3.2-8,8v40c0,4.8,3.2,8,8,8h40c4.8,0,8-3.2,8-8v-40C176,379.2,172.8,376,168,376z M160,416h-24
				v-24h24V416z"/>
		</g>
	</g>
</g>
<g>
</g>
<g>
</g>
<g>
</g>
<g>
</g>
<g>
</g>
<g>
</g>
<g>
</g>
<g>
</g>
<g>
</g>
<g>
</g>
<g>
</g>
<g>
</g>
<g>
</g>
<g>
</g>
<g>
</g>
</svg>
