<svg id="_x31_px" enable-background="new 0 0 24 24" height="512" viewBox="0 0 24 24" width="512" xmlns="http://www.w3.org/2000/svg"><path d="m.77 15c-.229 0-.436-.158-.488-.391-.187-.831-.282-1.71-.282-2.609 0-6.617 5.383-12 12-12 3.8 0 7.408 1.83 9.653 4.895.163.223.115.536-.107.699-.225.163-.536.116-.699-.108-2.058-2.809-5.365-4.486-8.847-4.486-6.065 0-11 4.935-11 11 0 .826.087 1.63.258 2.391.061.269-.109.537-.379.597-.037.008-.073.012-.109.012z" fill="#fff"/><path d="m12 24c-3.8 0-7.408-1.83-9.653-4.895-.163-.223-.115-.536.107-.699.224-.163.536-.115.699.108 2.058 2.809 5.365 4.486 8.847 4.486 6.065 0 11-4.935 11-11 0-.839-.09-1.641-.267-2.384-.064-.269.102-.538.37-.602.271-.066.538.102.603.371.195.818.294 1.698.294 2.615 0 6.617-5.383 12-12 12z" fill="#fff"/><path d="m2.55 22c-.272 0-.495-.218-.5-.492l-.05-3c-.002-.134.05-.263.144-.359s.222-.149.356-.149h3c.276 0 .5.224.5.5s-.224.5-.5.5h-2.491l.041 2.492c.005.276-.216.503-.492.508-.002 0-.005 0-.008 0z" fill="#fff"/><path d="m21.5 6h-3c-.276 0-.5-.224-.5-.5s.224-.5.5-.5h2.5v-2.5c0-.276.224-.5.5-.5s.5.224.5.5v3c0 .276-.224.5-.5.5z" fill="#fff"/><path d="m12 11c-.061 0-.122-.011-.18-.033l-6.5-2.5c-.193-.074-.32-.26-.32-.467s.127-.393.32-.467l6.5-2.5c.115-.044.244-.044.359 0l6.5 2.5c.194.074.321.26.321.467s-.127.393-.32.467l-6.5 2.5c-.058.022-.119.033-.18.033zm-5.107-3 5.107 1.964 5.107-1.964-5.107-1.964z" fill="#fff"/><path d="m12 19c-.061 0-.122-.011-.18-.033l-6.5-2.5c-.193-.074-.32-.26-.32-.467v-8c0-.276.224-.5.5-.5s.5.224.5.5v7.657l6 2.308 6-2.308v-7.657c0-.276.224-.5.5-.5s.5.224.5.5v8c0 .207-.127.393-.32.467l-6.5 2.5c-.058.022-.119.033-.18.033z" fill="#fff"/><path d="m12 19c-.276 0-.5-.224-.5-.5v-8c0-.276.224-.5.5-.5s.5.224.5.5v8c0 .276-.224.5-.5.5z" fill="#fff"/></svg>